Normalized EMG Linear Envelopes
nRows=246
nColumns=4

endheader
time	 med_gas_r	  soleus_r	 tib_ant_r	
2.92742	  0.064862	  0.035288	  0.014022	
2.96069	  0.066408	  0.036943	  0.014147	
2.99395	  0.067668	  0.038288	  0.014289	
3.02722	  0.068493	  0.039129	  0.014452	
3.06048	  0.068799	  0.039345	  0.014592	
3.09375	  0.068559	  0.038940	  0.014647	
3.12702	  0.067791	  0.038074	  0.014577	
3.16028	  0.066577	  0.037032	  0.014389	
3.19355	  0.065092	  0.036122	  0.014131	
3.22681	  0.063596	  0.035565	  0.013863	
3.26008	  0.062380	  0.035449	  0.013635	
3.29335	  0.061689	  0.035767	  0.013482	
3.32661	  0.061696	  0.036511	  0.013421	
3.35988	  0.062494	  0.037699	  0.013448	
3.39315	  0.064074	  0.039301	  0.013535	
3.42641	  0.066266	  0.041128	  0.013637	
3.45968	  0.068709	  0.042804	  0.013709	
3.49294	  0.070939	  0.043890	  0.013727	
3.52621	  0.072564	  0.044104	  0.013682	
3.55948	  0.073389	  0.043452	  0.013581	
3.59274	  0.073409	  0.042200	  0.013436	
3.62601	  0.072707	  0.040710	  0.013266	
3.65927	  0.071422	  0.039279	  0.013100	
3.69254	  0.069798	  0.038076	  0.012973	
3.72581	  0.068215	  0.037159	  0.012905	
3.75907	  0.067086	  0.036530	  0.012886	
3.79234	  0.066668	  0.036170	  0.012887	
3.8256	  0.066910	  0.036043	  0.012880	
3.85887	  0.067480	  0.036100	  0.012859	
3.89214	  0.067929	  0.036280	  0.012839	
3.9254	  0.067917	  0.036518	  0.012841	
3.95867	  0.067341	  0.036742	  0.012877	
3.99194	  0.066326	  0.036883	  0.012939	
4.0252	  0.065106	  0.036894	  0.013007	
4.05847	  0.063889	  0.036785	  0.013064	
4.09173	  0.062796	  0.036622	  0.013114	
4.125	  0.061888	  0.036493	  0.013183	
4.15827	  0.061225	  0.036461	  0.013300	
4.19153	  0.060891	  0.036540	  0.013468	
4.2248	  0.060961	  0.036704	  0.013650	
4.25806	  0.061437	  0.036896	  0.013788	
4.29133	  0.062231	  0.037047	  0.013846	
4.3246	  0.063199	  0.037092	  0.013825	
4.35786	  0.064199	  0.037016	  0.013761	
4.39113	  0.065139	  0.036867	  0.013694	
4.4244	  0.065994	  0.036733	  0.013655	
4.45766	  0.066823	  0.036684	  0.013675	
4.49093	  0.067754	  0.036734	  0.013782	
4.52419	  0.068921	  0.036849	  0.013992	
4.55746	  0.070351	  0.036994	  0.014273	
4.59073	  0.071853	  0.037146	  0.014521	
4.62399	  0.073001	  0.037258	  0.014552	
4.65726	  0.073268	  0.037208	  0.014134	
4.69052	  0.072254	  0.036796	  0.013046	
4.72379	  0.069867	  0.035828	  0.011141	
4.75706	  0.066349	  0.034206	  0.008382	
4.79032	  0.062141	  0.031996	  0.004855	
4.82359	  0.057730	  0.029449	  0.000807	
4.85685	  0.053626	  0.027005	 -0.003240	
4.89012	  0.050496	  0.025323	 -0.006337	
4.92339	  0.049357	  0.025293	 -0.007017	
4.95665	  0.051685	  0.028040	 -0.003288	
4.98992	  0.059440	  0.034911	  0.007341	
5.02319	  0.074978	  0.047426	  0.027839	
5.05645	  0.100742	  0.067110	  0.061443	
5.08972	  0.138592	  0.095073	  0.110856	
5.12298	  0.188828	  0.131370	  0.176753	
5.15625	  0.249345	  0.174427	  0.256239	
5.18952	  0.315484	  0.220994	  0.342483	
5.22278	  0.380838	  0.266859	  0.426269	
5.25605	  0.438813	  0.308045	  0.498868	
5.28931	  0.484341	  0.341862	  0.554606	
5.32258	  0.515006	  0.367311	  0.591767	
5.35585	  0.531103	  0.384761	  0.611764	
5.38911	  0.534748	  0.395335	  0.617499	
5.42238	  0.528833	  0.400463	  0.611959	
5.45565	  0.516503	  0.401733	  0.597556	
5.48891	  0.501097	  0.400777	  0.576230	
5.52218	  0.485952	  0.398966	  0.549915	
5.55544	  0.473765	  0.397064	  0.520957	
5.58871	  0.465914	  0.395165	  0.492177	
5.62198	  0.462386	  0.393000	  0.466556	
5.65524	  0.462540	  0.390444	  0.446634	
5.68851	  0.466112	  0.387982	  0.433840	
5.72177	  0.473547	  0.386866	  0.428164	
5.75504	  0.485232	  0.388700	  0.428487	
5.78831	  0.500402	  0.394565	  0.433519	
5.82157	  0.516967	  0.404290	  0.442679	
5.85484	  0.532634	  0.416493	  0.456311	
5.8881	  0.546309	  0.429394	  0.475040	
5.92137	  0.558492	  0.441713	  0.498706	
5.95464	  0.570357	  0.452904	  0.525549	
5.9879	  0.582305	  0.462613	  0.552248	
6.02117	  0.593067	  0.469911	  0.574988	
6.05444	  0.599962	  0.473160	  0.591039	
6.0877	  0.600198	  0.470763	  0.599862	
6.12097	  0.592424	  0.462287	  0.602875	
6.15423	  0.577555	  0.448970	  0.601995	
6.1875	  0.558395	  0.433225	  0.598114	
6.22077	  0.538382	  0.417503	  0.590842	
6.25403	  0.520232	  0.403283	  0.579666	
6.2873	  0.505112	  0.390693	  0.565276	
6.32056	  0.492600	  0.378897	  0.549704	
6.35383	  0.481381	  0.366970	  0.535188	
6.3871	  0.470310	  0.354737	  0.522998	
6.42036	  0.459237	  0.343043	  0.513274	
6.45363	  0.449163	  0.333369	  0.505762	
6.4869	  0.441765	  0.327214	  0.500543	
6.52016	  0.438738	  0.325710	  0.498104	
6.55343	  0.441324	  0.329557	  0.498823	
6.58669	  0.450118	  0.339008	  0.502435	
6.61996	  0.465019	  0.353716	  0.508105	
6.65323	  0.485170	  0.372505	  0.515223	
6.68649	  0.508883	  0.393288	  0.524274	
6.71976	  0.533664	  0.413380	  0.536780	
6.75302	  0.556550	  0.430280	  0.554063	
6.78629	  0.574818	  0.442601	  0.575689	
6.81956	  0.586901	  0.450591	  0.598870	
6.85282	  0.593145	  0.455930	  0.619386	
6.88609	  0.595906	  0.460995	  0.633495	
6.91935	  0.598609	  0.467970	  0.639606	
6.95262	  0.604029	  0.478047	  0.638701	
6.98589	  0.612815	  0.490972	  0.633408	
7.01915	  0.623274	  0.505197	  0.626547	
7.05242	  0.632446	  0.518668	  0.620165	
7.08569	  0.637518	  0.529670	  0.615407	
7.11895	  0.636673	  0.537141	  0.612778	
7.15222	  0.629285	  0.540384	  0.612272	
7.18548	  0.615875	  0.538723	  0.613336	
7.21875	  0.598043	  0.531617	  0.615038	
7.25202	  0.578289	  0.519259	  0.616522	
7.28528	  0.559641	  0.503282	  0.617359	
7.31855	  0.545209	  0.486968	  0.617435	
7.35181	  0.537648	  0.474494	  0.616526	
7.38508	  0.538496	  0.469257	  0.614099	
7.41835	  0.547549	  0.472188	  0.609584	
7.45161	  0.562672	  0.481279	  0.602804	
7.48488	  0.580285	  0.492753	  0.594094	
7.51815	  0.596310	  0.502925	  0.584089	
7.55141	  0.607132	  0.509408	  0.573498	
7.58468	  0.610303	  0.511118	  0.563118	
7.61794	  0.604982	  0.507789	  0.554034	
7.65121	  0.592179	  0.499816	  0.547747	
7.68448	  0.574657	  0.488416	  0.546002	
7.71774	  0.556194	  0.475419	  0.550211	
7.75101	  0.540242	  0.462446	  0.560525	
7.78427	  0.528616	  0.450206	  0.575014	
7.81754	  0.521070	  0.438705	  0.589648	
7.85081	  0.516010	  0.428101	  0.599507	
7.88407	  0.511694	  0.419078	  0.600753	
7.91734	  0.506992	  0.412195	  0.592254	
7.9506	  0.501353	  0.406940	  0.575814	
7.98387	  0.494403	  0.401710	  0.554924	
8.01714	  0.485870	  0.394997	  0.532914	
8.0504	  0.476076	  0.386822	  0.511833	
8.08367	  0.466592	  0.379250	  0.492779	
8.11694	  0.460312	  0.375610	  0.477107	
8.1502	  0.460543	  0.379026	  0.467055	
8.18347	  0.469475	  0.391217	  0.464894	
8.21673	  0.487012	  0.412159	  0.471273	
8.25	  0.510738	  0.440422	  0.484427	
8.28327	  0.536949	  0.473531	  0.501066	
8.31653	  0.562003	  0.508041	  0.518098	
8.3498	  0.583253	  0.539735	  0.533709	
8.38306	  0.599309	  0.564454	  0.547176	
8.41633	  0.609854	  0.579365	  0.557990	
8.4496	  0.615297	  0.583762	  0.565296	
8.48286	  0.616394	  0.578791	  0.568143	
8.51613	  0.613921	  0.566403	  0.566349	
8.5494	  0.608484	  0.548383	  0.561245	
8.58266	  0.600632	  0.526072	  0.555515	
8.61593	  0.591253	  0.500756	  0.552041	
8.64919	  0.581909	  0.474280	  0.552571	
8.68246	  0.574680	  0.449319	  0.557279	
8.71573	  0.571406	  0.429031	  0.565476	
8.74899	  0.572814	  0.416240	  0.576610	
8.78226	  0.578179	  0.412601	  0.590459	
8.81552	  0.585776	  0.418074	  0.606356	
8.84879	  0.593663	  0.430770	  0.622502	
8.88206	  0.600236	  0.447184	  0.636471	
8.91532	  0.604395	  0.462946	  0.646639	
8.94859	  0.605553	  0.474119	  0.653080	
8.98185	  0.603573	  0.478527	  0.656892	
9.01512	  0.598566	  0.476355	  0.658538	
9.04839	  0.590680	  0.469709	  0.656820	
9.08165	  0.580312	  0.461707	  0.649443	
9.11492	  0.568787	  0.455742	  0.634765	
9.14819	  0.558749	  0.454922	  0.613427	
9.18145	  0.553435	  0.461318	  0.588784	
9.21472	  0.555141	  0.475116	  0.565858	
9.24798	  0.564143	  0.494422	  0.549377	
9.28125	  0.578946	  0.515989	  0.541969	
9.31452	  0.597307	  0.536329	  0.543493	
9.34778	  0.616907	  0.552493	  0.551712	
9.38105	  0.635280	  0.562450	  0.563567	
9.41431	  0.649590	  0.565280	  0.576103	
9.44758	  0.656953	  0.561139	  0.586819	
9.48085	  0.655398	  0.550946	  0.593928	
9.51411	  0.644882	  0.536127	  0.596833	
9.54738	  0.627622	  0.518673	  0.596306	
9.58065	  0.607410	  0.501226	  0.593719	
9.61391	  0.588192	  0.486626	  0.589693	
9.64718	  0.572570	  0.476829	  0.583425	
9.68044	  0.560757	  0.471819	  0.573482	
9.71371	  0.550424	  0.469322	  0.559386	
9.74698	  0.537741	  0.465750	  0.542509	
9.78024	  0.519444	  0.457990	  0.525629	
9.81351	  0.494837	  0.444964	  0.511660	
9.84677	  0.466312	  0.427882	  0.502538	
9.88004	  0.437971	  0.409144	  0.498769	
9.91331	  0.413479	  0.390870	  0.499603	
9.94657	  0.394795	  0.374231	  0.503511	
9.97984	  0.382375	  0.359812	  0.508593	
10.0131	  0.375995	  0.348208	  0.512750	
10.0464	  0.375084	  0.339979	  0.513862	
10.0796	  0.378406	  0.334965	  0.510305	
10.1129	  0.383909	  0.331869	  0.501722	
10.1462	  0.389473	  0.328878	  0.489341	
10.1794	  0.394149	  0.324983	  0.475317	
10.2127	  0.398721	  0.320827	  0.461481	
10.246	  0.404873	  0.318226	  0.448458	
10.2792	  0.413491	  0.318680	  0.435755	
10.3125	  0.423326	  0.321974	  0.422436	
10.3458	  0.430906	  0.325801	  0.407525	
10.379	  0.431641	  0.326513	  0.389696	
10.4123	  0.421467	  0.320413	  0.366767	
10.4456	  0.398234	  0.304916	  0.335978	
10.4788	  0.362371	  0.279189	  0.295460	
10.5121	  0.316787	  0.244379	  0.246049	
10.5454	  0.266198	  0.203498	  0.191912	
10.5786	  0.216083	  0.160888	  0.139207	
10.6119	  0.171420	  0.121125	  0.093607	
10.6452	  0.135555	  0.087732	  0.058374	
10.6784	  0.109648	  0.062366	  0.034032	
10.7117	  0.092957	  0.044884	  0.019295	
10.745	  0.083696	  0.034053	  0.012202	
10.7782	  0.079908	  0.028316	  0.010757	
10.8115	  0.079908	  0.026257	  0.013131	
10.8448	  0.082287	  0.026739	  0.017759	
10.878	  0.085760	  0.028917	  0.023447	
10.9113	  0.089174	  0.032218	  0.029390	
10.9446	  0.091692	  0.036294	  0.035063	
10.9778	  0.092990	  0.040939	  0.040103	
11.0111	  0.093220	  0.045987	  0.044289	
11.0444	  0.092742	  0.051226	  0.047583	
11.0776	  0.091834	  0.056352	  0.050098	
